# xmcd
#
# Track frame offsets: 
#        150
#        8064
#        17873
#        33514
#        41942
#        55427
#        64899
#        69315
#        78160
#        87657
#        95168
#
# Disc length: 2493 seconds
#
# Revision: 1
# Processed by: cddbd v1.5.1PL2 Copyright (c) Steve Scherf et al.
# Submitted via: ExactAudioCopy v0.95a5
#
DISCID=9509bb0b
DTITLE=Komety - Komety
DYEAR=1900
DGENRE=Psychobilly
TTITLE0=Krol Flipperow
TTITLE1=Nuda Nuda Nuda
TTITLE2=Samobojczynie
TTITLE3=Graveyard Stroll
TTITLE4=Lonely Sky
TTITLE5=Tak czy nie?
TTITLE6=Blue Moon
TTITLE7=Love At First Bite
TTITLE8=Gdzie ona jest?
TTITLE9=Runaway
TTITLE10=[hidden track]
EXTD=
EXTT0=
EXTT1=
EXTT2=
EXTT3=
EXTT4=
EXTT5=
EXTT6=
EXTT7=
EXTT8=
EXTT9=
EXTT10=
PLAYORDER=
